# xmcd
#
# Track frame offsets: 
#        150
#        15842
#        28800
#        45662
#        61432
#        76855
#        92545
#        111777
#        127822
#        144862
#        165295
#        181755
#        198780
#        217132
#
# Disc length: 3144 seconds
#
# Revision: 19
# Processed by: cddbd v1.5.2PL0 Copyright (c) Steve Scherf et al.
# Submitted via: ExactAudioCopy v1.3
#
DISCID=a40c460e
DTITLE=Kenny Rogers - The Very Best Of
DYEAR=1990
DGENRE=Country
TTITLE0=What I Did For Love
TTITLE1=Ruby Don't Take Your Love To Town
TTITLE2=Don't Fall In Love With A Dreamer (Duet With Kim Carnes)
TTITLE3=The Gambler
TTITLE4=Daytime Friends
TTITLE5=Love Is Strange (Duet With Dolly Parton)
TTITLE6=She Believes In Me
TTITLE7=Lucille
TTITLE8=Lady
TTITLE9=Coward Of The County
TTITLE10=You Decorated My Life
TTITLE11=Love Lifted Me
TTITLE12=Something's Burning
TTITLE13=Islands In The Stream (Duet With Dolly Parton)
EXTD=YEAR: 1990
EXTT0=
EXTT1=
EXTT2=
EXTT3=
EXTT4=
EXTT5=
EXTT6=
EXTT7=
EXTT8=
EXTT9=
EXTT10=
EXTT11=
EXTT12=
EXTT13=
PLAYORDER=
